HIERARCHY
ROOT root
{
	OFFSET	0	13.1	24.9
	CHANNELS 6  Xposition Yposition Zposition Xrotation Yrotation Zrotation
	JOINT spine_1
	{
		OFFSET	0	9.99999	0
		CHANNELS 3  Xrotation Yrotation Zrotation
		JOINT spine_2
		{
			OFFSET	0	112	-10
			CHANNELS 3  Xrotation Yrotation Zrotation
			JOINT spine_3
			{
				OFFSET	0	206.5	19.3
				CHANNELS 3  Xrotation Yrotation Zrotation
				JOINT spine_4
				{
					OFFSET	0	110.4	14.6
					CHANNELS 3  Xrotation Yrotation Zrotation
					JOINT neck_1
					{
						OFFSET	0	71.8	-50.3
						CHANNELS 3  Xrotation Yrotation Zrotation
						JOINT neck_2
						{
							OFFSET	0	86.2	-25.8
							CHANNELS 3  Xrotation Yrotation Zrotation
							JOINT head_ee
							{
								OFFSET	0	179.8	-8.7
								CHANNELS 3  Xrotation Yrotation Zrotation
								End Site
								{
									OFFSET	1	0	0
								}
							}
						}
					}
					JOINT left_clavicle
					{
						OFFSET	-43.2	22.4	-70.8
						CHANNELS 3  Xrotation Yrotation Zrotation
						JOINT left_shoulder
						{
							OFFSET	-93.9	-5.79999	48.7
							CHANNELS 3  Xrotation Yrotation Zrotation
							JOINT left_elbow
							{
								OFFSET	-291.4	-30.8	15.2
								CHANNELS 3  Xrotation Yrotation Zrotation
								JOINT left_lowarm_twist
								{
									OFFSET	-110.7	-3.89999	13.6
									CHANNELS 3  Xrotation Yrotation Zrotation
									JOINT left_hand
									{
										OFFSET	-110.7	-3.89999	13.6
										CHANNELS 3  Xrotation Yrotation Zrotation
										JOINT left_ee
										{
											OFFSET	-80.8	-5.10001	12.1
											CHANNELS 3  Xrotation Yrotation Zrotation
											End Site
											{
												OFFSET	1	0	0
											}
										}
									}
								}
							}
						}
					}
					JOINT right_clavicle
					{
						OFFSET	43.2	22.4	-70.8
						CHANNELS 3  Xrotation Yrotation Zrotation
						JOINT right_shoulder
						{
							OFFSET	93.9	-5.79999	48.7
							CHANNELS 3  Xrotation Yrotation Zrotation
							JOINT right_elbow
							{
								OFFSET	291.4	-30.8	15.2
								CHANNELS 3  Xrotation Yrotation Zrotation
								JOINT right_lowarm_twist
								{
									OFFSET	110.7	-3.89999	13.6
									CHANNELS 3  Xrotation Yrotation Zrotation
									JOINT right_hand
									{
										OFFSET	110.7	-3.89999	13.6
										CHANNELS 3  Xrotation Yrotation Zrotation
										JOINT right_ee
										{
											OFFSET	80.8	-5.10001	12.1
											CHANNELS 3  Xrotation Yrotation Zrotation
											End Site
											{
												OFFSET	1	0	0
											}
										}
									}
								}
							}
						}
					}
				}
			}
		}
	}
	JOINT left_hip
	{
		OFFSET	-82.8	-127.5	0.300001
		CHANNELS 3  Xrotation Yrotation Zrotation
		JOINT left_knee
		{
			OFFSET	-28.2	-396.7	2.2
			CHANNELS 3  Xrotation Yrotation Zrotation
			JOINT left_ankle
			{
				OFFSET	-11.7	-411.3	35.4
				CHANNELS 3  Xrotation Yrotation Zrotation
				JOINT left_toes
				{
					OFFSET	0	-60	-88.6
					CHANNELS 3  Xrotation Yrotation Zrotation
					JOINT left_foot_ee
					{
						OFFSET	-22.5	-16.5	-42.2
						CHANNELS 3  Xrotation Yrotation Zrotation
						End Site
						{
							OFFSET	1	0	0
						}
					}
				}
			}
		}
	}
	JOINT right_hip
	{
		OFFSET	82.8	-127.5	0.300001
		CHANNELS 3  Xrotation Yrotation Zrotation
		JOINT right_knee
		{
			OFFSET	28.2	-396.7	2.2
			CHANNELS 3  Xrotation Yrotation Zrotation
			JOINT right_ankle
			{
				OFFSET	11.7	-411.3	35.4
				CHANNELS 3  Xrotation Yrotation Zrotation
				JOINT right_toes
				{
					OFFSET	0	-60	-88.6
					CHANNELS 3  Xrotation Yrotation Zrotation
					JOINT right_foot_ee
					{
						OFFSET	22.5	-16.5	-42.2
						CHANNELS 3  Xrotation Yrotation Zrotation
						End Site
						{
							OFFSET	1	0	0
						}
					}
				}
			}
		}
	}
}
MOTION
Frames: 14
Frame Time: 0.02
1119.93197974 745.295 -1756.61118636 -5.18065533417 42.4429764431 -1.46002329986 3.48733 0.387487 1.299 3.48822 0.30405 1.32102 3.49486 0.102247 1.35169 3.49245 0.31442 1.31859 -17.9537 5.30277 0.655996 -18.0684 9.84298 2.64739 -0.0 0.0 -0.0 3.68965 15.791 7.70715 -36.1016 -25.4454 62.535 0.578214 -15.9835 0.0811784 -5.90294 -0.245004 0.713372 0.681272 26.3464 14.2989 -0.0 0.0 -0.0 5.86629 14.5687 -10.7251 -5.96894 16.2916 -64.6243 1.35525 33.8737 -0.412727 38.1243 0.255314 4.77476 -0.349237 -6.45461 -0.41369 0.0 0.0 0.0 30.8614 10.6936 2.93312 -62.6592 -2.49387 8.81172 13.054 20.8688 -1.88469 -22.1304 0.0 0.0 -0.0 0.0 -0.0 14.6103 18.1294 0.341596 -9.90513 -0.27939 -1.49256 10.0338 0.199847 1.44034 -7.1818 0.0 0.0 0.0 0.0 0.0 
1104.26411927 748.639 -1762.07579614 -4.8906982177 44.0870599565 -1.908303313 3.62888 0.301453 1.39003 3.62993 0.2124 1.40639 3.63466 0.00226169 1.42233 3.6319 0.226841 1.40413 -18.3683 5.34808 0.858983 -18.4863 9.83204 2.89184 -0.0 0.0 -0.0 3.47557 16.2126 7.37566 -37.2686 -25.2926 62.6873 0.622264 -17.1321 0.0937325 -5.198 -0.211891 0.629538 0.807944 26.1788 14.9788 -0.0 0.0 -0.0 5.25897 14.107 -9.46145 -5.32789 15.783 -64.2892 1.43622 35.4283 -0.458769 37.8335 0.241401 4.74028 -0.305403 -5.5604 -0.322641 0.0 0.0 0.0 31.9082 11.5205 3.90563 -63.6654 -2.60851 8.91648 7.13323 21.5567 -1.05258 -23.5757 0.0 0.0 -0.0 0.0 -0.0 13.0131 18.0475 1.04699 -9.57954 -0.274331 -1.44286 11.3063 -0.337309 1.61334 -7.28418 0.0 0.0 0.0 0.0 0.0 
1089.76977721 747.843 -1765.364451 -5.66057830176 45.7462492433 -1.58798183552 3.69754 0.241705 1.41179 3.69864 0.151389 1.4243 3.70186 -0.0590684 1.43111 3.69904 0.167666 1.42248 -19.539 6.23002 2.07885 -19.6905 10.9347 4.49854 -0.0 0.0 -0.0 3.23644 16.7498 7.01283 -37.8722 -24.8402 63.2391 0.639011 -17.5651 0.0987261 -5.03344 -0.20431 0.60991 0.893528 26.2927 15.5108 -0.0 0.0 -0.0 5.17304 13.5976 -9.31461 -4.79756 15.9164 -63.9295 1.53797 37.2999 -0.519102 37.5836 0.229584 4.71059 -0.0557808 -3.6538 -1.16348 0.0 0.0 0.0 32.796 12.4125 3.25159 -63.6586 -2.60773 8.91579 3.72854 22.5771 -0.557775 -24.9748 0.0 0.0 -0.0 0.0 -0.0 11.6598 18.0821 1.91452 -8.48379 -0.255231 -1.2758 13.1283 -0.520546 1.85943 -6.59354 0.0 0.0 0.0 0.0 0.0 
1044.22660883 738.047 -1776.35716845 -6.08339976163 50.5725914382 -1.75567071478 3.90281 0.297039 1.39023 3.90386 0.207983 1.40631 3.90839 0.00469593 1.42159 3.90564 0.229128 1.40302 -17.9728 6.7779 1.96572 -18.1334 11.9714 4.44424 -0.0 0.0 -0.0 2.8482 17.4296 6.43058 -41.6841 -24.7277 62.6573 0.706538 -19.29 0.120074 -4.99971 -0.202764 0.605886 0.860958 24.7346 14.8377 -0.0 0.0 -0.0 4.79447 14.5404 -8.44152 -3.17788 15.8089 -62.786 1.78651 41.5045 -0.676975 37.3354 0.217972 4.68105 0.135834 0.159428 -0.840255 0.0 0.0 0.0 34.1387 8.53241 1.0155 -58.0836 -1.99665 8.31094 -6.27813 20.1211 0.949733 -31.8802 0.0 0.0 -0.0 0.0 -0.0 8.67715 15.9835 3.30891 -8.36325 -0.252934 -1.25745 18.5219 -0.302974 2.56457 -4.75199 0.0 0.0 0.0 0.0 0.0 
1038.46370421 735.427 -1789.12609618 -5.09828661329 50.5489867458 -1.76556448771 3.91777 0.313243 1.38893 3.91881 0.224236 1.40604 3.92374 0.0212072 1.42365 3.921 0.245757 1.40244 -17.7489 8.45082 1.01782 -18.0409 15.6934 4.20013 -0.0 0.0 -0.0 2.95592 16.7422 6.57284 -42.395 -24.667 62.3659 0.64142 -17.6273 0.0994543 -3.23967 -0.125353 0.394611 1.22867 22.6319 16.3871 -0.0 0.0 -0.0 5.73186 16.1423 -10.3261 -3.42254 12.9512 -61.7694 1.89174 43.1361 -0.747828 37.0172 0.203276 4.64311 0.719617 4.65069 -2.87923 0.0 0.0 0.0 33.7404 -0.667157 1.44732 -46.0964 -0.899443 6.82971 -14.1123 21.5665 2.16797 -39.9746 0.0 0.0 -0.0 0.0 -0.0 7.40341 13.6239 2.28339 -8.21064 -0.249972 -1.23422 19.9382 0.594405 2.74785 -4.19014 0.0 0.0 0.0 0.0 0.0 
1023.57655775 736.439 -1804.31013947 -5.65288239826 50.4127805331 -0.825442672555 3.67811 0.343893 1.3678 3.67912 0.256168 1.3869 3.68484 0.0496763 1.40948 3.68217 0.271633 1.38396 -18.0157 9.8248 2.88579 -18.3607 17.3404 6.52345 -0.0 0.0 -0.0 2.89747 16.1564 6.45879 -42.267 -24.7303 62.5213 0.595542 -16.437 0.0860158 -1.26808 -0.0464022 0.155285 1.19672 21.3993 15.8089 -0.0 0.0 -0.0 6.05643 16.6732 -10.9855 -3.61001 13.4974 -61.2813 2.08035 45.8563 -0.880059 35.9321 0.154758 4.51314 0.978629 6.04437 -4.04203 0.0 0.0 0.0 34.0659 -2.55046 -0.315704 -33.6516 -0.113029 5.08966 -20.9592 24.4105 3.27421 -40.1481 0.0 0.0 -0.0 0.0 -0.0 6.72357 12.4482 1.40987 -8.16224 -0.249019 -1.22685 20.8133 0.908151 2.85843 -3.75044 0.0 0.0 0.0 0.0 0.0 
1013.94943908 735.74 -1815.54559027 -5.81049443271 49.7523769986 0.0421036964514 3.5693 0.412735 1.27745 3.57015 0.330619 1.30111 3.57729 0.133433 1.33581 3.57496 0.342707 1.29798 -17.3412 10.889 2.68783 -17.7604 19.4437 6.6533 -0.0 0.0 -0.0 3.19353 15.9921 6.92211 -42.4326 -24.5109 62.2611 0.534955 -14.8425 0.0696805 -0.182423 -0.00646309 0.0224008 1.2767 20.4613 16.0065 -0.0 0.0 -0.0 6.05451 17.3825 -10.9287 -3.1928 13.7729 -62.1248 2.21104 47.5975 -0.975224 35.2052 0.123637 4.42558 1.38099 8.70437 -5.63677 0.0 0.0 0.0 33.744 -2.08608 -1.39971 -24.325 0.219283 3.69848 -25.9902 25.0422 4.07481 -40.8339 0.0 0.0 -0.0 0.0 -0.0 6.58993 11.758 0.127395 -8.39034 -0.253454 -1.26157 22.2062 1.31927 3.03159 -3.18052 0.0 0.0 0.0 0.0 0.0 
1000.5343753 733.46 -1824.40268914 -7.07329730693 48.8743117221 1.294916627 3.54927 0.302146 0.852786 3.54964 0.247271 0.870282 3.55324 0.114694 0.897427 3.5522 0.254981 0.868055 -16.4355 11.2559 1.6808 -16.8836 20.6433 5.69472 -0.0 0.0 -0.0 3.6042 15.7332 7.56943 -42.9391 -24.8063 63.4618 0.564537 -15.6241 0.0774534 1.17189 0.039814 -0.144374 1.61997 19.6947 17.9173 -0.0 0.0 -0.0 7.25276 17.1674 -13.5399 -3.80136 12.7295 -58.3709 2.27216 48.374 -1.02064 33.1993 0.0435612 4.18201 1.28021 9.48475 -4.61856 0.0 0.0 0.0 32.6547 -3.98051 -1.37369 -18.2957 0.312029 2.77838 -24.8442 25.461 3.90401 -40.1509 0.0 0.0 -0.0 0.0 -0.0 6.85791 11.975 -0.221012 -9.75597 -0.277108 -1.46978 23.2604 1.18989 3.15725 -1.71058 0.0 0.0 0.0 0.0 0.0 
999.713174142 733.023 -1837.39311498 -8.04198324894 47.3534767476 2.19574528645 3.51911 0.0701725 0.867934 3.51953 0.0148036 0.87064 3.51956 -0.11576 0.863037 3.51852 0.021988 0.870488 -16.1239 11.638 1.15208 -16.6092 21.6561 5.29124 -0.0 0.0 -0.0 3.61963 15.5775 7.59074 -41.4213 -25.3152 64.3723 0.533657 -14.808 0.0693485 2.70525 0.0874295 -0.334437 1.84753 19.495 19.3041 -0.0 0.0 -0.0 7.86193 15.9236 -14.9451 -3.78209 12.4958 -57.0126 2.46551 50.6824 -1.16775 31.966 -0.00141801 4.03094 1.42769 9.67757 -5.53475 0.0 0.0 0.0 31.8197 -5.13935 -1.4717 -9.48427 0.272797 1.42832 -24.3987 25.3732 3.83226 -39.8207 0.0 0.0 -0.0 0.0 -0.0 6.85303 10.9179 -0.368043 -9.46738 -0.272523 -1.42574 24.4359 1.60462 3.2996 -0.994752 0.0 0.0 0.0 0.0 0.0 
994.620120866 733.023 -1832.08238726 -8.16799015343 48.1570284927 2.36595629412 3.51911 0.0701725 0.867934 3.51953 0.0148036 0.87064 3.51956 -0.11576 0.863037 3.51852 0.021988 0.870488 -16.1239 11.638 1.15208 -16.6092 21.6561 5.29124 -0.0 0.0 -0.0 3.61963 15.5775 7.59074 -41.4213 -25.3152 64.3723 0.533657 -14.808 0.0693485 2.70525 0.0874295 -0.334437 1.84753 19.495 19.3041 -0.0 0.0 -0.0 7.86193 15.9236 -14.9451 -3.78209 12.4958 -57.0126 2.46551 50.6824 -1.16775 31.966 -0.00141801 4.03094 1.42769 9.67757 -5.53475 0.0 0.0 0.0 31.8197 -5.13935 -1.4717 -9.48427 0.272797 1.42832 -24.3987 25.3732 3.83226 -39.8207 0.0 0.0 -0.0 0.0 -0.0 6.85303 10.9179 -0.368043 -9.46738 -0.272523 -1.42574 24.4359 1.60462 3.2996 -0.994752 0.0 0.0 0.0 0.0 0.0 
976.539490143 729.961 -1864.28779383 -7.52695366438 44.1842668392 2.21338163981 3.65716 -0.170043 0.620083 3.65735 -0.209155 0.608007 3.65503 -0.296517 0.570523 3.65463 -0.202694 0.610191 -15.103 11.9753 0.397923 -15.5812 22.677 4.50246 -0.0 0.0 -0.0 3.7882 15.4778 7.85926 -40.5668 -25.8816 65.5241 0.561399 -15.5414 0.0766105 4.82241 0.144774 -0.598788 2.17797 19.2007 21.3514 -0.0 0.0 -0.0 8.9624 14.1828 -17.4395 -5.15783 10.9495 -55.2273 2.69998 53.2063 -1.35242 30.1882 -0.0605001 3.81157 1.44539 9.0796 -5.91248 0.0 0.0 0.0 31.1788 -6.61953 -1.61101 1.89777 -0.0827885 -0.27943 -21.3556 25.0784 3.34773 -38.1939 0.0 0.0 -0.0 0.0 -0.0 5.84426 12.2509 0.0300093 -12.1563 -0.306631 -1.83687 24.8901 3.02088 3.36573 0.23809 -0.0 -0.0 0.0 0.0 0.0 
971.964409955 729.961 -1859.58159048 -7.61477814482 44.8561957554 2.3386352462 3.65716 -0.170043 0.620083 3.65735 -0.209155 0.608007 3.65503 -0.296517 0.570523 3.65463 -0.202694 0.610191 -15.103 11.9753 0.397923 -15.5812 22.677 4.50246 -0.0 0.0 -0.0 3.7882 15.4778 7.85926 -40.5668 -25.8816 65.5241 0.561399 -15.5414 0.0766105 4.82241 0.144774 -0.598788 2.17797 19.2007 21.3514 -0.0 0.0 -0.0 8.9624 14.1828 -17.4395 -5.15783 10.9495 -55.2273 2.69998 53.2063 -1.35242 30.1882 -0.0605001 3.81157 1.44539 9.0796 -5.91248 0.0 0.0 0.0 31.1788 -6.61953 -1.61101 1.89777 -0.0827885 -0.27943 -21.3556 25.0784 3.34773 -38.1939 0.0 0.0 -0.0 0.0 -0.0 5.84426 12.2509 0.0300093 -12.1563 -0.306631 -1.83687 24.8901 3.02088 3.36573 0.23809 -0.0 -0.0 0.0 0.0 0.0 
967.387943313 729.961 -1854.7604214 -7.70692533009 45.5365680521 2.46850435661 3.65716 -0.170043 0.620083 3.65735 -0.209155 0.608007 3.65503 -0.296517 0.570523 3.65463 -0.202694 0.610191 -15.103 11.9753 0.397923 -15.5812 22.677 4.50246 -0.0 0.0 -0.0 3.7882 15.4778 7.85926 -40.5668 -25.8816 65.5241 0.561399 -15.5414 0.0766105 4.82241 0.144774 -0.598788 2.17797 19.2007 21.3514 -0.0 0.0 -0.0 8.9624 14.1828 -17.4395 -5.15783 10.9495 -55.2273 2.69998 53.2063 -1.35242 30.1882 -0.0605001 3.81157 1.44539 9.0796 -5.91248 0.0 0.0 0.0 31.1788 -6.61953 -1.61101 1.89777 -0.0827885 -0.27943 -21.3556 25.0784 3.34773 -38.1939 0.0 0.0 -0.0 0.0 -0.0 5.84426 12.2509 0.0300093 -12.1563 -0.306631 -1.83687 24.8901 3.02088 3.36573 0.23809 -0.0 -0.0 0.0 0.0 0.0 
955.237632547 728.871 -1870.74356923 -8.06042692078 44.2076463179 2.90210909695 3.78634 -0.135375 0.420604 3.78642 -0.161864 0.411137 3.78521 -0.219841 0.383281 3.78504 -0.156551 0.41319 -14.6422 11.835 -0.988813 -15.1138 23.2053 3.0552 -0.0 0.0 -0.0 3.93405 15.452 8.09333 -40.6329 -25.9172 65.4457 0.564132 -15.6134 0.0773444 5.373 0.158082 -0.667861 2.08532 19.6439 20.8765 -0.0 0.0 -0.0 9.15063 13.6302 -17.8755 -5.97636 10.3879 -54.8029 2.69427 53.1481 -1.34785 29.7486 -0.0740555 3.75707 1.39281 8.05603 -5.99453 0.0 0.0 0.0 30.6938 -6.68907 -1.72452 5.13642 -0.245334 -0.749586 -16.2569 26.3567 2.55946 -35.3444 0.0 0.0 -0.0 0.0 -0.0 5.50369 13.0448 0.0101938 -13.1756 -0.314513 -1.99307 26.2051 3.61934 3.52404 1.38679 -0.0 -0.0 0.0 0.0 0.0 
